<?xml version="1.0" encoding="utf-8"?>
<!-- Generator: Adobe Illustrator 23.0.1, SVG Export Plug-In . SVG Version: 6.00 Build 0)  -->
<svg version="1.1" id="Layer_1" xmlns="http://www.w3.org/2000/svg" xmlns:xlink="http://www.w3.org/1999/xlink" x="0px" y="0px"
	 viewBox="0 0 51 51" style="enable-background:new 0 0 51 51;" xml:space="preserve">
<style type="text/css">
	.st0{fill:#EA580C;}
	.st1{fill:#353D40;}
</style>
<g>
	<path class="st0" d="M31.19,16.46l-4.51-1.96c-0.33-0.15-0.71-0.11-1.02,0.09c-0.3,0.2-0.49,0.54-0.49,0.9v0.43v3.5v4.36
		c0,0.59,0.48,1.07,1.08,1.07c0.6,0,1.08-0.48,1.08-1.07v-3.65l3.86-1.68c0.39-0.17,0.65-0.56,0.65-0.99
		C31.84,17.02,31.59,16.63,31.19,16.46z"/>
	<path class="st1" d="M26.26,1.29c-12.78,0-23.18,10.4-23.18,23.18c0,10.96,7.64,20.16,17.87,22.56c1.06,0.17,1.87-0.75,1.87-1.52
		v-5.61c0-1.9,1.54-3.44,3.44-3.44c1.9,0,3.44,1.54,3.44,3.44v5.61c0,0.76,0.82,1.68,1.87,1.52c10.23-2.41,17.87-11.61,17.87-22.56
		C49.44,11.69,39.04,1.29,26.26,1.29z M40.34,37.01c-0.64,0.61-1.65,0.24-1.9-0.57l-1.86-12.59c-0.06-0.42-0.42-0.73-0.85-0.73
		h-3.44c-0.48,0-0.86,0.39-0.86,0.86v2.58h-2.59v-2.58c0-0.47-0.38-0.86-0.86-0.86h-3.44c-0.48,0-0.86,0.39-0.86,0.86v2.58h-2.58
		v-2.58c0-0.47-0.39-0.86-0.86-0.86h-3.44c-0.43,0-0.79,0.31-0.85,0.73l-1.86,12.52l-0.01-0.33c0,0.99-1.07,1.57-1.81,1.07
		c-3.03-3.35-4.89-7.79-4.89-12.65c0-10.41,8.47-18.88,18.88-18.88c10.41,0,18.88,8.47,18.88,18.88
		C45.14,29.28,43.32,33.68,40.34,37.01z"/>
</g>
</svg>
