<?xml version="1.0" encoding="utf-8"?>
<!-- Generator: Adobe Illustrator 15.1.0, SVG Export Plug-In . SVG Version: 6.00 Build 0)  -->
<!DOCTYPE svg PUBLIC "-//W3C//DTD SVG 1.1//EN" "http://www.w3.org/Graphics/SVG/1.1/DTD/svg11.dtd">
<svg version="1.1" id="Layer_1" xmlns="http://www.w3.org/2000/svg" xmlns:xlink="http://www.w3.org/1999/xlink" x="0px" y="0px"
	 width="25px" height="25px" viewBox="0 0 25 25" enable-background="new 0 0 25 25" xml:space="preserve">
<path d="M12.5,0C5.597,0,0,5.597,0,12.5S5.597,25,12.5,25S25,19.403,25,12.5S19.403,0,12.5,0z M12.5,22.868
	c-5.727,0-10.368-4.642-10.368-10.368c0-5.726,4.642-10.368,10.368-10.368S22.868,6.774,22.868,12.5
	C22.868,18.227,18.227,22.868,12.5,22.868z"/>
<path d="M14.666,12.5l2.956-2.956c0.598-0.598,0.598-1.568,0-2.166c-0.599-0.598-1.567-0.598-2.166,0L12.5,10.334L9.544,7.378
	c-0.598-0.598-1.567-0.598-2.166,0c-0.598,0.598-0.598,1.568,0,2.166l2.956,2.956l-2.956,2.956c-0.598,0.599-0.598,1.567,0,2.166
	c0.299,0.299,0.691,0.448,1.083,0.448c0.392,0,0.784-0.149,1.083-0.448l2.956-2.956l2.956,2.956c0.299,0.299,0.69,0.448,1.083,0.448
	c0.392,0,0.783-0.149,1.083-0.448c0.598-0.599,0.598-1.567,0-2.166L14.666,12.5z"/>
</svg>
