<?xml version="1.0" encoding="utf-8"?>
<!-- Generator: Adobe Illustrator 23.0.1, SVG Export Plug-In . SVG Version: 6.00 Build 0)  -->
<svg version="1.1" xmlns="http://www.w3.org/2000/svg" xmlns:xlink="http://www.w3.org/1999/xlink" x="0px" y="0px"
	 viewBox="0 0 51 51" style="enable-background:new 0 0 51 51;" xml:space="preserve">
<style type="text/css">
	.st0{fill-rule:evenodd;clip-rule:evenodd;fill:#3C3C3B;}
	.st1{fill-rule:evenodd;clip-rule:evenodd;fill:#009FE3;}
</style>
<g id="Layer_2">
	<rect x="20.34" y="23.37" class="st0" width="3.57" height="3.57"/>
	<rect x="25.22" y="23.37" class="st0" width="3.58" height="3.57"/>
	<rect x="20.34" y="28.27" class="st0" width="3.57" height="3.57"/>
	<rect x="25.22" y="28.27" class="st0" width="3.58" height="3.57"/>
	<polygon class="st0" points="24.56,3.14 24.56,9.98 9.38,25.19 2.53,25.19 	"/>
	<path class="st0" d="M24.56,43.02c7.69,0,14.07-5.64,15.22-12.99h4.89c-1.21,10.04-9.74,17.83-20.12,17.83V43.02z"/>
</g>
<g id="Layer_3">
	<polygon class="st1" points="24.56,3.14 24.56,9.98 39.77,25.19 46.61,25.19 39.88,18.46 39.88,4.52 35.04,4.52 35.04,13.62 	"/>
	<path class="st1" d="M24.56,43.02c-7.66,0-14.05-5.64-15.2-12.99H4.47c1.19,10.04,9.73,17.83,20.09,17.83V43.02z"/>
</g>
</svg>
