<?xml version="1.0" encoding="utf-8"?>
<!-- Generator: Adobe Illustrator 15.1.0, SVG Export Plug-In . SVG Version: 6.00 Build 0)  -->
<!DOCTYPE svg PUBLIC "-//W3C//DTD SVG 1.1//EN" "http://www.w3.org/Graphics/SVG/1.1/DTD/svg11.dtd">
<svg version="1.1" id="Layer_1" xmlns="http://www.w3.org/2000/svg" xmlns:xlink="http://www.w3.org/1999/xlink" x="0px" y="0px"
	 width="25px" height="25px" viewBox="287.5 287.5 25 25" enable-background="new 287.5 287.5 25 25" xml:space="preserve">
<rect x="287.5" y="308.531" width="25" height="3.969"/>
<rect x="287.5" y="303.259" width="25" height="3.685"/>
<g>
	<path fill="#020203" d="M300.176,287.5c-3.816,0-6.919,3.103-6.919,6.918c0,3.816,3.104,6.919,6.919,6.919
		c3.815,0,6.919-3.104,6.919-6.919C307.095,290.603,303.991,287.5,300.176,287.5z M304.397,293.958l-1.667,1.711l0.395,2.413
		c0.044,0.241-0.065,0.471-0.263,0.613c-0.11,0.077-0.23,0.11-0.362,0.11c-0.109,0-0.208-0.021-0.307-0.077l-2.029-1.118
		l-2.028,1.118c-0.208,0.121-0.472,0.099-0.669-0.033c-0.197-0.142-0.296-0.373-0.263-0.613l0.395-2.413l-1.645-1.711
		c-0.164-0.164-0.219-0.406-0.143-0.635c0.077-0.22,0.263-0.384,0.504-0.417l2.27-0.351l1.02-2.182
		c0.099-0.219,0.329-0.361,0.57-0.361s0.461,0.142,0.57,0.361l1.02,2.182l2.27,0.351c0.23,0.033,0.428,0.197,0.504,0.417
		C304.617,293.552,304.562,293.794,304.397,293.958z"/>
</g>
</svg>
