<?xml version="1.0" encoding="utf-8"?>
<!-- Generator: Adobe Illustrator 15.1.0, SVG Export Plug-In . SVG Version: 6.00 Build 0)  -->
<!DOCTYPE svg PUBLIC "-//W3C//DTD SVG 1.1//EN" "http://www.w3.org/Graphics/SVG/1.1/DTD/svg11.dtd">
<svg version="1.1" id="Layer_1" xmlns="http://www.w3.org/2000/svg" xmlns:xlink="http://www.w3.org/1999/xlink" x="0px" y="0px"
	 width="25px" height="25px" viewBox="287.5 287.5 25 25" enable-background="new 287.5 287.5 25 25" xml:space="preserve">
<g>
	<path fill="#020203" d="M300,287.5c-6.888,0-12.5,5.602-12.5,12.5s5.612,12.5,12.5,12.5s12.5-5.612,12.5-12.5
		C312.5,293.113,306.898,287.5,300,287.5z M307.64,299.183l-3.008,3.084l0.709,4.37c0.065,0.426-0.109,0.861-0.469,1.112
		c-0.196,0.142-0.425,0.207-0.654,0.207c-0.185,0-0.381-0.044-0.545-0.142l-3.662-2.027l-3.661,2.027
		c-0.393,0.207-0.861,0.185-1.221-0.065c-0.359-0.251-0.534-0.687-0.469-1.112l0.708-4.37l-3.008-3.084
		c-0.283-0.305-0.392-0.752-0.25-1.155c0.131-0.403,0.49-0.698,0.904-0.763l4.108-0.632l1.853-3.945
		c0.186-0.403,0.589-0.654,1.024-0.654c0.437,0,0.84,0.25,1.024,0.654l1.854,3.945l4.108,0.632c0.425,0.065,0.773,0.36,0.904,0.763
		C308.032,298.431,307.935,298.878,307.64,299.183z"/>
</g>
</svg>
