<?xml version="1.0" encoding="utf-8"?>
<!-- Generator: Adobe Illustrator 15.1.0, SVG Export Plug-In . SVG Version: 6.00 Build 0)  -->
<!DOCTYPE svg PUBLIC "-//W3C//DTD SVG 1.1//EN" "http://www.w3.org/Graphics/SVG/1.1/DTD/svg11.dtd">
<svg version="1.1" id="Layer_1" xmlns="http://www.w3.org/2000/svg" xmlns:xlink="http://www.w3.org/1999/xlink" x="0px" y="0px"
	 width="15px" height="15px" viewBox="292.5 292.5 15 15" enable-background="new 292.5 292.5 15 15" xml:space="preserve">
<g>
	<g>
		<path d="M298.538,304.465c-0.207,0-0.429-0.079-0.588-0.238c-0.318-0.317-0.318-0.842,0-1.16l3.083-3.066l-3.067-3.067
			c-0.318-0.318-0.318-0.842,0-1.16c0.317-0.318,0.842-0.318,1.16,0l3.654,3.654c0.144,0.143,0.239,0.35,0.239,0.572
			s-0.096,0.429-0.239,0.588l-3.654,3.654C298.967,304.386,298.761,304.465,298.538,304.465z"/>
	</g>
	<g>
		<path d="M300,307.5c-4.131,0-7.5-3.369-7.5-7.5c0-4.131,3.369-7.5,7.5-7.5c4.131,0,7.5,3.369,7.5,7.5
			C307.5,304.131,304.131,307.5,300,307.5z M300,294.152c-3.226,0-5.848,2.622-5.848,5.848s2.622,5.848,5.848,5.848
			s5.848-2.622,5.848-5.848S303.226,294.152,300,294.152z"/>
	</g>
</g>
</svg>
