<?xml version="1.0" encoding="utf-8"?>
<!-- Generator: Adobe Illustrator 15.1.0, SVG Export Plug-In . SVG Version: 6.00 Build 0)  -->
<!DOCTYPE svg PUBLIC "-//W3C//DTD SVG 1.1//EN" "http://www.w3.org/Graphics/SVG/1.1/DTD/svg11.dtd">
<svg version="1.1" id="Layer_1" xmlns="http://www.w3.org/2000/svg" xmlns:xlink="http://www.w3.org/1999/xlink" x="0px" y="0px"
	 width="15px" height="15px" viewBox="292.5 292.5 15 15" enable-background="new 292.5 292.5 15 15" xml:space="preserve">
<path d="M306.727,292.5h-9.981c-0.42,0-0.773,0.351-0.773,0.77v1.775h-2.698c-0.42,0-0.773,0.352-0.773,0.77v10.915
	c0,0.419,0.353,0.771,0.773,0.771h10.98c0.421,0,0.773-0.352,0.757-0.771v-2.774h1.716c0.42,0,0.773-0.334,0.773-0.77v-9.916
	C307.5,292.851,307.146,292.5,306.727,292.5z M303.464,305.96h-9.417v-9.375h1.925v6.601c0,0.418,0.353,0.77,0.773,0.77h6.719
	V305.96z"/>
</svg>
