<?xml version="1.0" encoding="utf-8"?>
<!-- Generator: Adobe Illustrator 15.1.0, SVG Export Plug-In . SVG Version: 6.00 Build 0)  -->
<!DOCTYPE svg PUBLIC "-//W3C//DTD SVG 1.1//EN" "http://www.w3.org/Graphics/SVG/1.1/DTD/svg11.dtd">
<svg version="1.1" id="Layer_1" xmlns="http://www.w3.org/2000/svg" xmlns:xlink="http://www.w3.org/1999/xlink" x="0px" y="0px"
	 width="15px" height="15px" viewBox="292.5 292.5 15 15" enable-background="new 292.5 292.5 15 15" xml:space="preserve">
<g>
	<g>
		<path d="M300.874,304.242l-3.654-3.654c-0.144-0.159-0.239-0.365-0.239-0.588s0.096-0.429,0.239-0.572l3.654-3.654
			c0.317-0.318,0.842-0.318,1.159,0c0.318,0.318,0.318,0.842,0,1.16L298.967,300l3.083,3.066c0.317,0.318,0.317,0.843,0,1.16
			c-0.159,0.159-0.382,0.238-0.588,0.238C301.239,304.465,301.032,304.386,300.874,304.242z"/>
	</g>
	<g>
		<path d="M292.5,300c0-4.131,3.369-7.5,7.5-7.5s7.5,3.369,7.5,7.5c0,4.131-3.369,7.5-7.5,7.5S292.5,304.131,292.5,300z
			 M294.152,300c0,3.226,2.622,5.848,5.848,5.848s5.848-2.622,5.848-5.848s-2.622-5.848-5.848-5.848S294.152,296.774,294.152,300z"
			/>
	</g>
</g>
</svg>
