<?xml version="1.0" encoding="utf-8"?>
<!-- Generator: Adobe Illustrator 15.1.0, SVG Export Plug-In . SVG Version: 6.00 Build 0)  -->
<!DOCTYPE svg PUBLIC "-//W3C//DTD SVG 1.1//EN" "http://www.w3.org/Graphics/SVG/1.1/DTD/svg11.dtd">
<svg version="1.1" id="Layer_1" xmlns="http://www.w3.org/2000/svg" xmlns:xlink="http://www.w3.org/1999/xlink" x="0px" y="0px"
	 width="15px" height="15px" viewBox="292.5 292.5 15 15" enable-background="new 292.5 292.5 15 15" xml:space="preserve">
<path d="M306.69,299.189c-0.452,0-0.811,0.374-0.811,0.811c0,3.242-2.647,5.894-5.888,5.894c-3.24,0-5.888-2.651-5.888-5.894
	c0-3.244,2.648-5.895,5.888-5.895c1.34,0,2.63,0.456,3.666,1.279l-0.706-0.078c-0.452-0.047-0.842,0.265-0.888,0.717
	c-0.047,0.436,0.265,0.826,0.7,0.873l2.492,0.281c0.031,0,0.063,0,0.094,0c0.405,0,0.764-0.297,0.811-0.718l0.28-2.495
	c0.046-0.437-0.28-0.842-0.717-0.889c-0.452-0.047-0.841,0.281-0.888,0.717l-0.049,0.443c-1.334-1.115-3.028-1.737-4.796-1.737
	c-4.127,0-7.492,3.368-7.492,7.5c0,4.132,3.365,7.5,7.492,7.5c4.128,0,7.492-3.368,7.508-7.5
	C307.5,299.547,307.126,299.189,306.69,299.189z"/>
</svg>
