<?xml version="1.0" encoding="utf-8"?>
<!-- Generator: Adobe Illustrator 15.1.0, SVG Export Plug-In . SVG Version: 6.00 Build 0)  -->
<!DOCTYPE svg PUBLIC "-//W3C//DTD SVG 1.1//EN" "http://www.w3.org/Graphics/SVG/1.1/DTD/svg11.dtd">
<svg version="1.1" id="Layer_1" xmlns="http://www.w3.org/2000/svg" xmlns:xlink="http://www.w3.org/1999/xlink" x="0px" y="0px"
	 width="15px" height="15px" viewBox="292.5 292.5 15 15" enable-background="new 292.5 292.5 15 15" xml:space="preserve">
<g>
	<path d="M305.23,293.772h-1.445c-0.078-0.723-0.676-1.272-1.414-1.272h-4.428c-0.723,0-1.335,0.565-1.414,1.272h-1.743
		c-0.785,0-1.43,0.644-1.43,1.429v1.9c0,0.785,0.645,1.429,1.43,1.429h0.157l0.502,7.131c0.079,1.037,0.943,1.838,1.979,1.838h5.419
		c1.035,0,1.916-0.816,1.979-1.838l0.502-7.134c0.742-0.049,1.32-0.672,1.32-1.426v-1.9
		C306.645,294.416,306.016,293.788,305.23,293.772z M294.943,295.375h1.743c0.723,0,1.335-0.565,1.414-1.272h4.13
		c0.078,0.723,0.676,1.272,1.414,1.272h1.43v1.57h-10.131V295.375z M303.236,305.537c-0.016,0.22-0.189,0.377-0.393,0.377h-5.435
		c-0.204,0-0.377-0.173-0.393-0.377l-0.487-6.958h7.194L303.236,305.537z"/>
	<path d="M298.666,304.704c0.439,0,0.801-0.361,0.801-0.785v-3.801c0-0.424-0.361-0.785-0.801-0.785
		c-0.44,0-0.802,0.346-0.802,0.785v3.801C297.864,304.343,298.225,304.704,298.666,304.704z"/>
	<path d="M301.854,304.704c0.439,0,0.801-0.361,0.801-0.785v-3.801c0-0.424-0.361-0.785-0.801-0.785s-0.801,0.346-0.801,0.785v3.801
		C301.053,304.343,301.414,304.704,301.854,304.704z"/>
</g>
</svg>
