<?xml version="1.0" encoding="utf-8"?>
<!-- Generator: Adobe Illustrator 15.1.0, SVG Export Plug-In . SVG Version: 6.00 Build 0)  -->
<!DOCTYPE svg PUBLIC "-//W3C//DTD SVG 1.1//EN" "http://www.w3.org/Graphics/SVG/1.1/DTD/svg11.dtd">
<svg version="1.1" id="Layer_1" xmlns="http://www.w3.org/2000/svg" xmlns:xlink="http://www.w3.org/1999/xlink" x="0px" y="0px"
	 width="25px" height="25px" viewBox="287.5 287.5 25 25" enable-background="new 287.5 287.5 25 25" xml:space="preserve">
<g id="Layer_3">
</g>
<g id="Layer_2">
	<rect x="287.5" y="287.521" width="11.479" height="2.014"/>
	<rect x="301.413" y="287.5" width="2.674" height="2.013"/>
	<rect x="305.652" y="287.5" width="2.739" height="2.013"/>
	<rect x="309.956" y="287.5" width="2.533" height="2.013"/>
	<rect x="287.522" y="292.017" width="11.478" height="2.013"/>
	<rect x="301.424" y="291.995" width="2.674" height="2.013"/>
	<rect x="305.663" y="291.995" width="2.739" height="2.013"/>
	<rect x="309.968" y="291.995" width="2.532" height="2.013"/>
	<rect x="287.511" y="296.708" width="11.479" height="2.014"/>
	<rect x="301.424" y="296.686" width="2.674" height="2.014"/>
	<rect x="305.652" y="296.686" width="2.739" height="2.014"/>
	<rect x="309.956" y="296.686" width="2.533" height="2.014"/>
	<rect x="287.533" y="301.214" width="11.478" height="2.013"/>
	<rect x="301.424" y="301.181" width="2.674" height="2.014"/>
	<rect x="305.663" y="301.181" width="2.739" height="2.014"/>
	<rect x="309.968" y="301.181" width="2.532" height="2.014"/>
	<rect x="287.511" y="305.991" width="11.479" height="2.014"/>
	<rect x="301.424" y="305.959" width="2.674" height="2.014"/>
	<rect x="305.652" y="305.959" width="2.739" height="2.014"/>
	<rect x="309.956" y="305.959" width="2.533" height="2.014"/>
	<rect x="287.533" y="310.486" width="11.478" height="2.014"/>
	<rect x="301.424" y="310.454" width="2.674" height="2.014"/>
	<rect x="305.663" y="310.454" width="2.739" height="2.014"/>
	<rect x="309.968" y="310.454" width="2.532" height="2.014"/>
</g>
</svg>
