<?xml version="1.0" encoding="utf-8"?>
<!-- Generator: Adobe Illustrator 15.1.0, SVG Export Plug-In . SVG Version: 6.00 Build 0)  -->
<!DOCTYPE svg PUBLIC "-//W3C//DTD SVG 1.1//EN" "http://www.w3.org/Graphics/SVG/1.1/DTD/svg11.dtd">
<svg version="1.1" id="Layer_1" xmlns="http://www.w3.org/2000/svg" xmlns:xlink="http://www.w3.org/1999/xlink" x="0px" y="0px"
	 width="15px" height="15px" viewBox="292.5 292.5 15 15" enable-background="new 292.5 292.5 15 15" xml:space="preserve">
<g>
	<g>
		<path fill="#858584" d="M298.506,299.375h-5.167c-0.452,0-0.84-0.374-0.84-0.846v-5.184c0-0.455,0.372-0.846,0.84-0.846h5.167
			c0.452,0,0.84,0.374,0.84,0.846v5.2C299.346,299.001,298.975,299.375,298.506,299.375z M294.18,297.701h3.487v-3.511h-3.487
			V297.701z"/>
	</g>
	<g>
		<path fill="#4D4D4C" d="M306.661,299.375h-5.168c-0.452,0-0.839-0.374-0.839-0.846v-5.184c0-0.455,0.371-0.846,0.839-0.846h5.168
			c0.452,0,0.839,0.374,0.839,0.846v5.2C307.5,299.001,307.128,299.375,306.661,299.375z M302.333,297.701h3.487v-3.511h-3.487
			V297.701z"/>
	</g>
	<g>
		<path fill="#757474" d="M298.506,307.5h-5.167c-0.452,0-0.84-0.373-0.84-0.845v-5.184c0-0.455,0.372-0.846,0.84-0.846h5.167
			c0.452,0,0.84,0.374,0.84,0.846v5.2C299.346,307.127,298.975,307.5,298.506,307.5z M294.18,305.826h3.487v-3.51h-3.487V305.826z"
			/>
	</g>
	<g>
		<path d="M306.661,307.5h-5.168c-0.452,0-0.839-0.373-0.839-0.845v-5.184c0-0.455,0.371-0.846,0.839-0.846h5.168
			c0.452,0,0.839,0.374,0.839,0.846v5.2C307.5,307.127,307.128,307.5,306.661,307.5z M302.333,305.826h3.487v-3.51h-3.487V305.826z"
			/>
	</g>
</g>
</svg>
