<?xml version="1.0" encoding="utf-8"?>
<!-- Generator: Adobe Illustrator 23.0.1, SVG Export Plug-In . SVG Version: 6.00 Build 0)  -->
<svg version="1.1" id="Layer_1" xmlns="http://www.w3.org/2000/svg" xmlns:xlink="http://www.w3.org/1999/xlink" x="0px" y="0px"
	 viewBox="0 0 51 51" style="enable-background:new 0 0 51 51;" xml:space="preserve">
<style type="text/css">
	.st0{fill:#3D0C27;}
</style>
<path class="st0" d="M25.5,0.43C11.66,0.43,0.43,11.66,0.43,25.5S11.66,50.57,25.5,50.57c13.84,0,25.07-11.22,25.07-25.07
	S39.34,0.43,25.5,0.43z M40.61,18.87c-2.88,7.21-8.29,14.59-15.49,20.12s-11.27,7.29-11.27,7.29s0.32-11.85,4.2-21.46
	c3.88-9.61,8.87-11.23,10.16-11.53c1.29-0.3,4.83-0.36,4.77,3.66c-0.06,4.02-1.8,7.51-4.48,10.71c-2.68,3.2-6.69,6.2-6.69,6.2
	l0.84-4.62c0,0,1.6-1.47,3.15-3.12c1.59-1.44,3.18-4.56,3.45-6.4c0.27-1.83-2.22-3.6-4.88-0.1c-4.84,6.41-6.13,19.42-6.13,19.42
	c6.53-2.92,17.46-13.93,18.62-21.7c1.16-7.77-5.2-9.61-13.53-4.56C14.97,18.53,6.28,29.18,6.28,29.18l-2.44-6.05
	c8.33-7.03,19.3-14.23,29.09-16.45S43.49,11.66,40.61,18.87z"/>
</svg>
