<?xml version="1.0" encoding="utf-8"?>
<!-- Generator: Adobe Illustrator 23.0.1, SVG Export Plug-In . SVG Version: 6.00 Build 0)  -->
<svg version="1.1" xmlns="http://www.w3.org/2000/svg" xmlns:xlink="http://www.w3.org/1999/xlink" x="0px" y="0px"
	 viewBox="0 0 51 51" style="enable-background:new 0 0 51 51;" xml:space="preserve">
<style type="text/css">
	.st0{fill:#FBB926;}
	.st1{fill:#77BDE7;}
</style>
<g id="Layer_1">
	<g>
		<path class="st0" d="M2.87,26.7c0.07,1.32,0.25,2.62,0.54,3.88l4.09-4.09C5.96,26.55,4.42,26.63,2.87,26.7z"/>
		<path class="st0" d="M21.15,21.78l1.16-1.16c-3.04-4.73-6.08-9.47-9.12-14.2c-2.5,1.63-4.66,3.73-6.35,6.18
			C11.62,15.65,16.39,18.72,21.15,21.78z"/>
		<path class="st0" d="M23.35,19.58l1.75-1.75c-0.24-5.02-0.47-10.04-0.71-15.05c-3.06,0.16-5.97,0.92-8.59,2.18
			C18.32,9.83,20.84,14.7,23.35,19.58z"/>
		<path class="st0" d="M35.36,4.95c-2.45-1.17-5.14-1.91-7.98-2.14c-0.25,5.2-0.49,10.41-0.74,15.61l1.16,1.16
			C30.33,14.71,32.85,9.83,35.36,4.95z"/>
		<path class="st0" d="M28.84,20.63L30,21.78c4.77-3.06,9.54-6.13,14.32-9.19c-1.69-2.45-3.85-4.56-6.35-6.18
			C34.93,11.15,31.89,15.89,28.84,20.63z"/>
		<path class="st0" d="M37.82,26.18l3.64,3.64l1.72-1.72l4.13,4.13c0.55-1.77,0.88-3.63,0.98-5.55
			C44.8,26.51,41.31,26.35,37.82,26.18z"/>
		<path class="st0" d="M17.39,21.39c-4.02-2.08-8.05-4.15-12.07-6.23c-1.32,2.59-2.17,5.48-2.4,8.53
			c2.34,0.11,10.11,0.48,11.63,0.55L17.39,21.39z"/>
		<path class="st0" d="M48.25,23.69c-0.24-3.05-1.08-5.93-2.4-8.53c-4.94,2.55-9.88,5.1-14.82,7.65l1.62,1.62
			C33.52,24.38,46,23.79,48.25,23.69z"/>
	</g>
</g>
<g id="Layer_2">
	<path class="st1" d="M25.41,49.35c9.27,0,17.24-5.55,20.78-13.5l-3.19-3.19l-1.72,1.72l-5.85-5.85l-1.71,1.71l-8.32-8.32l-2.36,10
		l5.09,7.6l-7.22-4.56l-5.77,5.39l-4.08-5.76L4.8,36.22C8.42,43.98,16.29,49.35,25.41,49.35z"/>
</g>
</svg>
