<?xml version="1.0" encoding="utf-8"?>
<!-- Generator: Adobe Illustrator 23.0.1, SVG Export Plug-In . SVG Version: 6.00 Build 0)  -->
<svg version="1.1" id="Layer_2" xmlns="http://www.w3.org/2000/svg" xmlns:xlink="http://www.w3.org/1999/xlink" x="0px" y="0px"
	 viewBox="0 0 51 51" style="enable-background:new 0 0 51 51;" xml:space="preserve">
<style type="text/css">
	.st0{fill:url(#SVGID_1_);}
	.st1{fill:url(#SVGID_2_);}
	.st2{fill:url(#SVGID_3_);}
</style>
<g>
	<linearGradient id="SVGID_1_" gradientUnits="userSpaceOnUse" x1="34.3508" y1="6.5433" x2="34.3508" y2="51.2499">
		<stop  offset="0" style="stop-color:#662880"/>
		<stop  offset="1" style="stop-color:#292B5C"/>
	</linearGradient>
	<path class="st0" d="M37.71,35.47c0-1.08,0.54-2.03,1.36-2.61c-1.17,0.13-2.28,0.53-3.1,1.11c-0.32,3.5-3.48,4.12-6.77,4.69
		c-1.64,2.9-0.19,6.81,1.56,9.36c4.56-0.9,8.3-5.78,9.47-9.45C38.79,38.27,37.71,36.99,37.71,35.47z"/>
	<linearGradient id="SVGID_2_" gradientUnits="userSpaceOnUse" x1="17.6491" y1="6.5433" x2="17.6491" y2="51.2499">
		<stop  offset="0" style="stop-color:#662880"/>
		<stop  offset="1" style="stop-color:#292B5C"/>
	</linearGradient>
	<path class="st1" d="M16.03,33.98c-0.82-0.58-1.93-0.99-3.1-1.11c0.82,0.58,1.36,1.53,1.36,2.61c0,1.53-1.08,2.8-2.51,3.11
		c1.17,3.67,4.9,8.55,9.47,9.45c1.75-2.54,3.2-6.46,1.56-9.36C19.52,38.09,16.35,37.48,16.03,33.98z"/>
	<linearGradient id="SVGID_3_" gradientUnits="userSpaceOnUse" x1="25.9999" y1="6.5435" x2="25.9999" y2="51.2499">
		<stop  offset="0" style="stop-color:#662880"/>
		<stop  offset="1" style="stop-color:#292B5C"/>
	</linearGradient>
	<path class="st2" d="M29.04,37.8c3.29-3.29,5.64-5.06,9.75-5.65c0.09-0.89,0.16-1.77,0.2-2.65c-5.28,1.27-9.68,6.3-9.68,6.3
		s5.21-7.42,9.73-8.35c0,0,0.03-0.54,0.03-0.82c0-3.5-1.38-6.68-3.62-9.02c-2.24-2.34-3.69-3.53-0.87-8.36
		c-4.21,2.47-5.29,10.4-5.29,12.59c-1.46-4.17,0.05-11.14,3.04-14.71L26,2.61l-6.32,4.51c2.99,3.57,4.5,10.54,3.04,14.71
		c0-2.19-1.08-10.12-5.29-12.59c2.82,4.83,1.37,6.02-0.87,8.36c-2.24,2.34-3.62,5.52-3.62,9.02c0,0.27,0.03,0.82,0.03,0.82
		c4.52,0.93,9.73,8.35,9.73,8.35s-4.4-5.03-9.68-6.3c0.04,0.88,0.11,1.77,0.2,2.65c4.11,0.59,6.46,2.37,9.75,5.65
		c3.03,3.03,1.26,8.13,1.26,8.13L26,47.74l1.78-1.81C27.78,45.93,26.01,40.83,29.04,37.8z"/>
</g>
</svg>
