<?xml version="1.0" encoding="utf-8"?>
<!-- Generator: Adobe Illustrator 15.1.0, SVG Export Plug-In . SVG Version: 6.00 Build 0)  -->
<!DOCTYPE svg PUBLIC "-//W3C//DTD SVG 1.1//EN" "http://www.w3.org/Graphics/SVG/1.1/DTD/svg11.dtd">
<svg version="1.1" id="Layer_1" xmlns="http://www.w3.org/2000/svg" xmlns:xlink="http://www.w3.org/1999/xlink" x="0px" y="0px"
	 width="25px" height="25px" viewBox="287.5 287.5 25 25" enable-background="new 287.5 287.5 25 25" xml:space="preserve">
<g>
	<polygon points="289.7,289.63 292.966,289.63 292.966,287.457 289.7,287.457 289.7,287.455 287.526,287.455 287.526,292.89 
		289.7,292.89 	"/>
	<polygon points="310.347,310.292 307.078,310.292 307.078,312.466 310.347,312.466 310.347,312.472 312.521,312.472 
		312.521,307.037 310.347,307.037 	"/>
	<polygon points="289.71,307.019 287.537,307.019 287.537,310.278 287.535,310.278 287.535,312.452 287.537,312.452 
		287.537,312.453 289.71,312.453 289.71,312.452 292.969,312.452 292.969,310.278 289.71,310.278 	"/>
	<polygon points="307.092,287.473 307.092,289.646 310.352,289.646 310.352,292.915 312.525,292.915 312.525,289.646 
		312.525,289.646 312.525,287.473 	"/>
	<polygon points="295.133,296.118 298.395,296.118 298.395,305.91 301.655,305.91 301.655,296.118 304.915,296.118 304.915,293.944 
		295.133,293.944 	"/>
</g>
</svg>
